<svg width="1829" height="915" viewBox="0 0 1829 915" fill="none" xmlns="http://www.w3.org/2000/svg">
<path opacity="0.1" d="M1795.72 121.704H1609.84C1601.02 121.704 1593.78 115.171 1593.78 107.188C1593.78 99.2049 1601.02 92.6552 1609.84 92.6552H1641.99C1633.15 92.6552 1625.93 86.1222 1625.93 78.1226C1625.93 70.1229 1633.15 63.6066 1641.99 63.6066H1619.04C1610.2 63.6066 1602.97 57.0735 1602.97 49.0739C1602.97 41.0743 1610.2 34.5579 1619.04 34.5579H1716.06C1694.53 25.5083 1669.37 19.0753 1640.37 15.6921C1375.81 -15.0231 1281.37 5.2926 1248.05 26.175C1206.52 52.5279 1160.39 70.8135 1112.08 80.0725C948.859 110.521 643.617 147.153 366.957 68.4063C229.452 29.1915 127.249 95.3718 66 206H1828C1825.7 173.851 1818.81 144.153 1806.17 118.171C1803.18 120.481 1799.5 121.724 1795.72 121.704V121.704Z" fill="#43FEBB"/>
<path opacity="0.1" d="M3.99897 415C-3.1383 480.022 -0.712134 545.737 11.2003 610.056L1642.65 664C1687.55 617.465 1725.71 564.87 1756 507.748L3.99897 415ZM649.255 554.148H617.133C625.968 554.148 633.202 560.693 633.202 568.67C633.202 576.648 625.968 583.176 617.133 583.176H431.314C422.495 583.176 415.261 576.648 415.261 568.67C415.261 560.693 422.495 554.148 431.314 554.148H463.453C454.618 554.148 447.4 547.619 447.4 539.642C447.4 531.664 454.618 525.119 463.453 525.119H440.499C431.664 525.119 424.429 518.59 424.429 510.613C424.429 502.635 431.664 496.09 440.499 496.09H626.318C635.153 496.09 642.371 502.619 642.371 510.613C642.371 518.607 635.153 525.119 626.318 525.119H649.255C658.09 525.119 665.308 531.647 665.308 539.642C665.308 547.636 658.09 554.148 649.255 554.148Z" fill="#43FEBB"/>
<path opacity="0.1" d="M1828.17 207L46.6669 246.252C24.9916 296.746 10.6193 353.837 4 413H1796.96C1808.63 378.386 1817.29 342.826 1822.84 306.718C1828.19 271.959 1830.32 238.335 1828.17 207ZM365.71 335.698H333.581C342.417 335.698 349.654 342.262 349.654 350.263C349.654 358.264 342.417 364.828 333.581 364.828H147.724C138.903 364.828 131.667 358.264 131.667 350.263C131.667 342.262 138.903 335.698 147.724 335.698H179.87C171.033 335.698 163.813 329.15 163.813 321.149C163.813 313.149 171.033 306.584 179.87 306.584H156.911C148.074 306.584 140.838 300.037 140.838 292.036C140.838 284.035 148.074 277.471 156.911 277.471H342.767C351.604 277.471 358.824 284.018 358.824 292.036C358.824 300.053 351.604 306.584 342.767 306.584H365.71C374.547 306.584 381.766 313.149 381.766 321.149C381.766 329.15 374.547 335.698 365.71 335.698Z" fill="#43FEBB"/>
<path opacity="0.1" d="M911.088 914.076C1157.95 914.076 1358.07 895.666 1358.07 872.956C1358.07 850.246 1157.95 831.836 911.088 831.836C664.228 831.836 464.108 850.246 464.108 872.956C464.108 895.666 664.228 914.076 911.088 914.076Z" fill="#43FEBB"/>
<path d="M1178.36 562.836C1183.33 562.836 1187.36 560.105 1187.36 556.736C1187.36 553.367 1183.33 550.636 1178.36 550.636C1173.39 550.636 1169.36 553.367 1169.36 556.736C1169.36 560.105 1173.39 562.836 1178.36 562.836Z" fill="#3F3D56"/>
<path d="M884.999 896.286C1055.38 896.286 1193.5 758.166 1193.5 587.786C1193.5 417.406 1055.38 279.286 884.999 279.286C714.619 279.286 576.499 417.406 576.499 587.786C576.499 758.166 714.619 896.286 884.999 896.286Z" fill="#43FEBB"/>
<path d="M723.129 633.014C723.129 584.314 799.689 628.854 881.769 628.854C963.849 628.854 1046.87 586.154 1046.87 634.854C1046.87 662.624 1020.41 701.244 982.449 729.294C953.849 750.434 918.729 765.574 883.449 765.574C847.169 765.574 811.629 749.184 783.279 726.684C747.499 698.314 723.129 660.194 723.129 633.014Z" fill="#3F3D56"/>
<path d="M783.289 726.704C826.919 733.274 905.829 741.284 982.449 729.314C953.849 750.454 918.729 765.594 883.449 765.594C847.179 765.594 811.639 749.204 783.289 726.704Z" fill="#F6F8FB"/>
<path opacity="0.05" d="M723.129 370.016C723.129 370.016 630.199 429.426 630.959 522.356C631.719 615.286 723.129 370.016 723.129 370.016Z" fill="#3F3D56"/>
<path d="M1379.33 115.183C1379.33 115.183 1238.78 106.684 1255.36 205.587C1255.36 205.587 1252.02 223.054 1267.84 231C1267.84 231 1268.1 223.674 1282.25 226.155C1287.29 227.003 1292.42 227.251 1297.52 226.893C1304.42 226.422 1310.97 223.703 1316.19 219.148V219.148C1316.19 219.148 1355.7 202.771 1371.07 137.914C1371.07 137.914 1382.44 123.766 1381.99 120.145L1358.27 130.303C1358.27 130.303 1366.36 147.486 1359.94 161.768C1359.94 161.768 1359.17 130.94 1354.61 131.594C1353.69 131.745 1342.29 137.545 1342.29 137.545C1342.29 137.545 1356.23 167.484 1345.63 189.226C1345.63 189.226 1349.62 152.347 1337.85 139.707L1321.16 149.497C1321.16 149.497 1337.45 180.409 1326.4 205.637C1326.4 205.637 1329.24 166.948 1317.65 151.878L1302.51 163.729C1302.51 163.729 1317.82 194.205 1308.49 215.125C1308.49 215.125 1307.27 170.082 1299.24 166.679C1299.24 166.679 1286.01 178.414 1283.99 183.225C1283.99 183.225 1294.47 205.335 1287.98 217.003C1287.98 217.003 1283.99 186.997 1280.71 186.829C1280.71 186.829 1267.53 206.71 1266.14 220.355C1266.14 220.355 1266.73 200.072 1277.51 184.935C1277.51 184.935 1264.76 187.131 1257.33 195.445C1257.33 195.445 1259.38 181.381 1280.7 180.157C1280.7 180.157 1291.6 165.07 1294.52 164.165C1294.52 164.165 1273.24 162.371 1260.33 168.121C1260.33 168.121 1271.68 154.861 1298.41 160.879L1313.43 148.642C1313.43 148.642 1285.42 144.787 1273.54 149.045C1273.54 149.045 1287.21 137.31 1317.45 145.86L1333.73 136.087C1333.73 136.087 1309.84 130.923 1295.6 132.734C1295.6 132.734 1310.63 124.604 1338.49 133.421L1350.17 128.174C1350.17 128.174 1332.66 124.721 1327.54 124.185C1322.41 123.648 1322.14 122.207 1322.14 122.207C1333.26 120.391 1344.67 121.72 1355.08 126.045C1355.08 126.045 1379.75 116.742 1379.33 115.183Z" fill="#43FEBB"/>
<path d="M1235.73 72.0828C1235.73 72.0828 1172.18 68.2569 1179.6 112.605C1179.6 112.605 1178.12 120.44 1185.26 124C1185.26 124 1185.36 120.673 1191.78 121.837C1194.06 122.211 1196.38 122.323 1198.68 122.17C1201.81 121.948 1204.78 120.729 1207.15 118.694V118.694C1207.15 118.694 1225.02 111.341 1231.98 82.2633C1231.98 82.2633 1237.13 75.9255 1237 74.2953L1226.26 78.8532C1226.26 78.8532 1229.94 86.5551 1227.05 92.9595C1227.05 92.9595 1226.7 79.136 1224.64 79.4687C1224.22 79.4687 1219.05 82.1303 1219.05 82.1303C1219.05 82.1303 1225.37 95.5545 1220.61 105.303C1220.61 105.303 1222.41 88.7675 1217.1 83.0951L1209.54 87.4867C1209.54 87.4867 1216.91 101.36 1211.91 112.672C1211.91 112.672 1213.18 95.3216 1207.95 88.5679L1201.09 93.8744C1201.09 93.8744 1208.02 107.532 1203.8 116.914C1203.8 116.914 1203.25 96.719 1199.6 95.1886C1199.6 95.1886 1193.62 100.445 1192.7 102.608C1192.7 102.608 1197.45 112.589 1194.5 117.762C1194.5 117.762 1192.7 104.304 1191.16 104.255C1191.16 104.255 1185.19 113.154 1184.57 119.226C1184.86 113.575 1186.63 108.098 1189.7 103.34C1186.26 103.987 1183.09 105.624 1180.57 108.047C1180.57 108.047 1181.49 101.743 1191.18 101.194C1191.18 101.194 1196.11 94.44 1197.43 94.0241C1197.43 94.0241 1187.8 93.2257 1181.96 95.804C1181.96 95.804 1187.1 89.8488 1199.2 92.4771L1205.89 87.0042C1205.89 87.0042 1193.22 85.3408 1187.83 87.1706C1187.83 87.1706 1194.02 81.914 1207.72 85.7566L1215.07 81.3651C1215.07 81.3651 1204.27 79.0528 1197.82 79.8846C1197.82 79.8846 1204.62 76.2415 1217.23 80.2006L1222.5 77.8385C1222.5 77.8385 1214.57 76.2914 1212.26 76.0586C1209.96 75.8257 1209.81 75.1769 1209.81 75.1769C1214.83 74.3462 1219.98 74.9222 1224.69 76.8404C1224.69 76.8404 1235.91 72.7815 1235.73 72.0828Z" fill="#43FEBB"/>
<path d="M1380.16 914.016C1402.37 914.016 1420.37 910.971 1420.37 907.216C1420.37 903.46 1402.37 900.416 1380.16 900.416C1357.95 900.416 1339.95 903.46 1339.95 907.216C1339.95 910.971 1357.95 914.016 1380.16 914.016Z" fill="#43FEBB"/>
<path d="M1396.78 896.106C1398.61 894.608 1399.95 892.589 1400.62 890.316C1401.11 888.026 1400.13 885.266 1397.94 884.426C1395.48 883.486 1392.85 885.196 1390.86 886.916C1388.87 888.636 1386.58 890.596 1383.97 890.236C1385.31 889.02 1386.32 887.478 1386.88 885.758C1387.45 884.039 1387.56 882.201 1387.21 880.426C1387.1 879.69 1386.78 878.999 1386.31 878.426C1384.94 876.966 1382.47 877.586 1380.83 878.736C1375.63 882.396 1374.18 889.456 1374.15 895.816C1373.63 893.526 1374.07 891.136 1374.06 888.816C1374.05 886.496 1373.4 883.816 1371.42 882.586C1370.19 881.929 1368.81 881.605 1367.42 881.646C1365.08 881.556 1362.48 881.786 1360.88 883.496C1358.88 885.626 1359.41 889.186 1361.14 891.496C1362.87 893.806 1365.49 895.306 1367.9 896.916C1369.84 898.069 1371.49 899.645 1372.74 901.526C1372.88 901.791 1373.01 902.068 1373.1 902.356H1387.75C1391.03 900.689 1394.06 898.587 1396.78 896.106V896.106Z" fill="#43FEBB"/>
<path d="M425.348 812.256C425.348 812.256 430.838 819.436 422.808 830.256C414.778 841.076 408.158 850.256 410.808 857.016C410.808 857.016 422.918 836.876 432.808 836.586C442.698 836.296 436.188 824.366 425.348 812.256Z" fill="#43FEBB"/>
<path opacity="0.1" d="M425.349 812.256C425.826 812.95 426.203 813.707 426.469 814.506C436.089 825.806 441.209 836.356 431.969 836.616C423.349 836.866 412.969 852.266 410.539 856.156C410.624 856.457 410.724 856.754 410.839 857.046C410.839 857.046 422.949 836.906 432.839 836.616C442.729 836.326 436.189 824.366 425.349 812.256Z" fill="#3F3D56"/>
<path d="M435.559 821.406C435.559 823.936 435.269 825.986 434.919 825.986C434.569 825.986 434.289 823.986 434.289 821.406C434.289 818.826 434.639 820.066 434.999 820.066C435.359 820.066 435.559 818.876 435.559 821.406Z" fill="#0055FF"/>
<path d="M439.018 824.426C436.798 825.636 434.868 826.366 434.698 826.056C434.528 825.746 436.198 824.526 438.418 823.316C440.638 822.106 439.758 822.986 439.928 823.316C440.098 823.646 441.278 823.216 439.018 824.426Z" fill="#0055FF"/>
<path d="M396.329 812.256C396.329 812.256 390.839 819.436 398.859 830.256C406.879 841.076 413.509 850.256 410.859 857.016C410.859 857.016 398.739 836.876 388.859 836.586C378.979 836.296 385.479 824.366 396.329 812.256Z" fill="#43FEBB"/>
<path opacity="0.1" d="M396.329 812.256C395.848 812.947 395.471 813.705 395.209 814.506C385.589 825.806 380.459 836.356 389.709 836.616C398.319 836.866 408.709 852.266 411.129 856.156C411.047 856.457 410.951 856.754 410.839 857.046C410.839 857.046 398.719 836.906 388.839 836.616C378.959 836.326 385.479 824.366 396.329 812.256Z" fill="#3F3D56"/>
<path d="M386.119 821.406C386.119 823.936 386.399 825.986 386.749 825.986C387.099 825.986 387.379 823.986 387.379 821.406C387.379 818.826 387.029 820.066 386.679 820.066C386.329 820.066 386.119 818.876 386.119 821.406Z" fill="#0055FF"/>
<path d="M382.609 824.426C384.829 825.636 386.769 826.366 386.939 826.056C387.109 825.746 385.439 824.526 383.219 823.316C380.999 822.106 381.869 822.986 381.709 823.316C381.549 823.646 380.389 823.216 382.609 824.426Z" fill="#0055FF"/>
<path d="M387.869 856.106C387.869 856.106 403.229 855.636 407.869 852.336C412.509 849.036 431.499 845.106 432.649 850.336C433.799 855.566 455.729 876.636 438.389 876.776C421.049 876.916 398.099 874.066 393.479 871.256C388.859 868.446 387.869 856.106 387.869 856.106Z" fill="#8192B5"/>
<path opacity="0.2" d="M438.679 874.986C421.339 875.126 398.389 872.276 393.769 869.466C390.249 867.326 388.849 859.636 388.379 856.086H387.869C387.869 856.086 388.869 868.476 393.459 871.286C398.049 874.096 421.029 876.946 438.369 876.806C443.369 876.806 445.099 874.976 445.009 872.346C444.309 873.956 442.409 874.956 438.679 874.986Z" fill="#3F3D56"/>
<path d="M994.694 572.182C988.824 572.512 961.194 574.592 943.644 584.602C940.825 586.261 937.641 587.198 934.374 587.332C928.794 587.492 922.374 585.162 926.484 572.122C933.144 550.792 971.814 526.792 995.814 528.122C1018.89 529.402 1046.27 538.702 1064.35 571.402C1066.09 574.549 1066.94 578.103 1066.82 581.692C1066.61 588.292 1064.21 596.562 1051.82 587.342C1035.08 574.892 1003.32 572.532 996.954 572.182C996.201 572.142 995.446 572.142 994.694 572.182V572.182Z" fill="#3F3D56"/>
<path d="M772.694 572.182C766.824 572.512 739.194 574.592 721.644 584.602C718.825 586.261 715.641 587.198 712.374 587.332C706.794 587.492 700.374 585.162 704.484 572.122C711.144 550.792 749.814 526.792 773.814 528.122C796.894 529.402 824.274 538.702 842.354 571.402C844.086 574.549 844.939 578.103 844.824 581.692C844.614 588.292 842.214 596.562 829.824 587.342C813.084 574.892 781.324 572.532 774.954 572.182C774.201 572.142 773.446 572.142 772.694 572.182V572.182Z" fill="#3F3D56"/>
</svg>
